<svg xmlns="http://www.w3.org/2000/svg" viewBox="0 0 64 64" role="img" aria-label="Bomberos Voluntarios Colonia Tirolesa">
  <defs>
    <linearGradient id="bg" x1="0" y1="0" x2="1" y2="1">
      <stop offset="0%" stop-color="#b91c1c"/>
      <stop offset="100%" stop-color="#7f1d1d"/>
    </linearGradient>
    <linearGradient id="flame" x1="0" y1="0" x2="0" y2="1">
      <stop offset="0%" stop-color="#fbbf24"/>
      <stop offset="100%" stop-color="#f59e0b"/>
    </linearGradient>
  </defs>
  <rect x="4" y="4" width="56" height="56" rx="14" fill="url(#bg)"/>
  <path d="M32 14c-3 6-10 10-10 20 0 6 5 12 10 12s10-6 10-12c0-8-6-12-10-20z" fill="url(#flame)"/>
  <path d="M32 25c-1 3-4 5-4 9 0 3 2 6 4 6s4-3 4-6c0-4-3-6-4-9z" fill="#fff7ed"/>
  <circle cx="16" cy="16" r="2" fill="#fecaca" opacity="0.85"/>
  <circle cx="48" cy="14" r="1.7" fill="#fecaca" opacity="0.8"/>
  <circle cx="50" cy="46" r="1.8" fill="#fecaca" opacity="0.75"/>
</svg>
